<svg width="120" height="50" viewBox="0 0 120 50" fill="none" xmlns="http://www.w3.org/2000/svg">
<path d="M0 20C0 8.97243 8.93958 0.0328493 19.9671 0.0328493H54.9C55.8015 0.0328493 56.608 0.599043 57.0865 1.3631C58.0136 2.84333 59.9427 5.02956 63.25 5.02956C68.25 5.02956 62.4418 0.404909 63.6 0.0328493C63.8301 -0.0410616 64.2 0.0328493 64.2 0.0328493H100.866C111.434 0.0328493 120 8.59933 120 19.1666C120 19.7141 119.868 20.2505 119.63 20.7433C118.775 22.5104 116.736 27.036 116.736 29.9999C116.736 34.7398 118.386 32.5292 119.34 30.8554C119.507 30.5622 120 30.6803 120 31.0177C120 41.5013 111.509 49.9999 101.026 49.9999C89.5046 49.9999 75.0139 49.9999 64.35 49.9999C61.3039 49.9999 59 45.0033 55 45.0033C51.5936 45.0033 54.4604 48.627 55.3863 49.7025C55.4856 49.8178 55.4022 50 55.25 50L18.3333 49.9999C8.2081 49.9999 0 41.7918 0 31.6666C0 30.7192 2.76151 26.6666 2.76151 22.5C2.76151 21.7029 2.63675 21.3011 2.44026 21.1626C1.62383 20.5872 0 20.9988 0 20Z" fill="url(#paint0_linear_701_395)"/>
<defs>
<linearGradient id="paint0_linear_701_395" x1="60.0002" y1="50" x2="60.0002" y2="1.78814e-05" gradientUnits="userSpaceOnUse">
<stop offset="0.0056" stop-color="#D42F55"/>
<stop offset="1" stop-color="#F87B98"/>
</linearGradient>
</defs>
</svg>
