<svg width="21" height="20" viewBox="0 0 21 20" fill="none" xmlns="http://www.w3.org/2000/svg">
<g clip-path="url(#clip0_701_3212)">
<path d="M17.5453 3.4629C16.2706 2.87799 14.9037 2.44707 13.4744 2.20025C13.4484 2.19549 13.4224 2.20739 13.409 2.2312C13.2332 2.54388 13.0384 2.9518 12.9021 3.27242C11.3648 3.04228 9.83549 3.04228 8.32977 3.27242C8.19338 2.94467 7.99157 2.54388 7.81498 2.2312C7.80157 2.20819 7.77557 2.19629 7.74954 2.20025C6.32109 2.44628 4.95414 2.87721 3.67861 3.4629C3.66757 3.46766 3.65811 3.4756 3.65183 3.48591C1.059 7.35954 0.34871 11.138 0.697152 14.8695C0.698729 14.8878 0.708977 14.9053 0.723167 14.9164C2.43384 16.1726 4.09092 16.9353 5.71723 17.4408C5.74326 17.4488 5.77084 17.4393 5.7874 17.4178C6.17211 16.8925 6.51504 16.3385 6.80907 15.756C6.82642 15.7219 6.80985 15.6814 6.77439 15.6679C6.23045 15.4616 5.7125 15.21 5.21428 14.9243C5.17487 14.9013 5.17171 14.8449 5.20797 14.8179C5.31281 14.7394 5.41769 14.6576 5.5178 14.5751C5.53591 14.56 5.56115 14.5568 5.58245 14.5664C8.85557 16.0608 12.3991 16.0608 15.6336 14.5664C15.6549 14.5561 15.6802 14.5592 15.6991 14.5743C15.7992 14.6568 15.9041 14.7394 16.0097 14.8179C16.0459 14.8449 16.0436 14.9013 16.0042 14.9243C15.5059 15.2155 14.988 15.4616 14.4433 15.6671C14.4078 15.6806 14.392 15.7219 14.4094 15.756C14.7097 16.3377 15.0526 16.8917 15.4302 17.417C15.446 17.4393 15.4744 17.4488 15.5004 17.4408C17.1346 16.9353 18.7917 16.1726 20.5024 14.9164C20.5173 14.9053 20.5268 14.8886 20.5284 14.8703C20.9454 10.5562 19.8299 6.80878 17.5713 3.4867C17.5658 3.4756 17.5564 3.46766 17.5453 3.4629ZM7.29785 12.5974C6.31242 12.5974 5.50045 11.6927 5.50045 10.5816C5.50045 9.47056 6.29667 8.56585 7.29785 8.56585C8.3069 8.56585 9.11101 9.4785 9.09523 10.5816C9.09523 11.6927 8.29901 12.5974 7.29785 12.5974ZM13.9435 12.5974C12.9581 12.5974 12.1461 11.6927 12.1461 10.5816C12.1461 9.47056 12.9423 8.56585 13.9435 8.56585C14.9525 8.56585 15.7566 9.4785 15.7409 10.5816C15.7409 11.6927 14.9525 12.5974 13.9435 12.5974Z" fill="white"/>
</g>
<defs>
<clipPath id="clip0_701_3212">
<rect width="20" height="20" fill="white" transform="translate(0.614502)"/>
</clipPath>
</defs>
</svg>
