<svg width="20" height="20" viewBox="0 0 20 20" fill="none" xmlns="http://www.w3.org/2000/svg">
<g clip-path="url(#clip0_701_12070)">
<path d="M17 10C17 6.134 13.866 3 10 3C6.134 3 3 6.134 3 10C3 13.4938 5.55979 16.3898 8.90625 16.915V12.0234H7.12891V10H8.90625V8.45781C8.90625 6.70344 9.95133 5.73437 11.5503 5.73437C12.3159 5.73437 13.1172 5.87109 13.1172 5.87109V7.59375H12.2345C11.365 7.59375 11.0937 8.13338 11.0937 8.6875V10H13.0352L12.7248 12.0234H11.0937V16.915C14.4402 16.3898 17 13.4938 17 10Z" fill="white"/>
</g>
<defs>
<clipPath id="clip0_701_12070">
<rect width="14" height="14" fill="white" transform="translate(3 3)"/>
</clipPath>
</defs>
</svg>
