<svg width="20" height="20" viewBox="0 0 20 20" fill="none" xmlns="http://www.w3.org/2000/svg">
<g clip-path="url(#clip0_701_12069)">
<path d="M10 4.26055C11.8703 4.26055 12.0918 4.26875 12.8273 4.30156C13.5109 4.33164 13.8801 4.44648 14.1262 4.54219C14.4516 4.66797 14.6867 4.82109 14.9301 5.06445C15.1762 5.31055 15.3266 5.54297 15.4523 5.86836C15.548 6.11445 15.6629 6.48633 15.693 7.16719C15.7258 7.90547 15.734 8.12695 15.734 9.99453C15.734 11.8648 15.7258 12.0863 15.693 12.8219C15.6629 13.5055 15.548 13.8746 15.4523 14.1207C15.3266 14.4461 15.1734 14.6812 14.9301 14.9246C14.684 15.1707 14.4516 15.3211 14.1262 15.4469C13.8801 15.5426 13.5082 15.6574 12.8273 15.6875C12.0891 15.7203 11.8676 15.7285 10 15.7285C8.12969 15.7285 7.9082 15.7203 7.17266 15.6875C6.48906 15.6574 6.11992 15.5426 5.87383 15.4469C5.54844 15.3211 5.31328 15.168 5.06992 14.9246C4.82383 14.6785 4.67344 14.4461 4.54766 14.1207C4.45195 13.8746 4.33711 13.5027 4.30703 12.8219C4.27422 12.0836 4.26602 11.8621 4.26602 9.99453C4.26602 8.12422 4.27422 7.90273 4.30703 7.16719C4.33711 6.48359 4.45195 6.11445 4.54766 5.86836C4.67344 5.54297 4.82656 5.30781 5.06992 5.06445C5.31602 4.81836 5.54844 4.66797 5.87383 4.54219C6.11992 4.44648 6.4918 4.33164 7.17266 4.30156C7.9082 4.26875 8.12969 4.26055 10 4.26055ZM10 3C8.09961 3 7.86172 3.0082 7.11523 3.04102C6.37148 3.07383 5.86016 3.19414 5.41719 3.36641C4.95508 3.54687 4.56406 3.78477 4.17578 4.17578C3.78477 4.56406 3.54687 4.95508 3.36641 5.41445C3.19414 5.86016 3.07383 6.36875 3.04102 7.1125C3.0082 7.86172 3 8.09961 3 10C3 11.9004 3.0082 12.1383 3.04102 12.8848C3.07383 13.6285 3.19414 14.1398 3.36641 14.5828C3.54687 15.0449 3.78477 15.4359 4.17578 15.8242C4.56406 16.2125 4.95508 16.4531 5.41445 16.6309C5.86016 16.8031 6.36875 16.9234 7.1125 16.9562C7.85898 16.9891 8.09687 16.9973 9.99726 16.9973C11.8977 16.9973 12.1355 16.9891 12.882 16.9562C13.6258 16.9234 14.1371 16.8031 14.5801 16.6309C15.0395 16.4531 15.4305 16.2125 15.8187 15.8242C16.207 15.4359 16.4477 15.0449 16.6254 14.5855C16.7977 14.1398 16.918 13.6312 16.9508 12.8875C16.9836 12.141 16.9918 11.9031 16.9918 10.0027C16.9918 8.10234 16.9836 7.86445 16.9508 7.11797C16.918 6.37422 16.7977 5.86289 16.6254 5.41992C16.4531 4.95508 16.2152 4.56406 15.8242 4.17578C15.4359 3.7875 15.0449 3.54687 14.5855 3.36914C14.1398 3.19687 13.6312 3.07656 12.8875 3.04375C12.1383 3.0082 11.9004 3 10 3Z" fill="white"/>
<path d="M10 6.4043C8.01484 6.4043 6.4043 8.01484 6.4043 10C6.4043 11.9852 8.01484 13.5957 10 13.5957C11.9852 13.5957 13.5957 11.9852 13.5957 10C13.5957 8.01484 11.9852 6.4043 10 6.4043ZM10 12.3324C8.71211 12.3324 7.66758 11.2879 7.66758 10C7.66758 8.71211 8.71211 7.66758 10 7.66758C11.2879 7.66758 12.3324 8.71211 12.3324 10C12.3324 11.2879 11.2879 12.3324 10 12.3324Z" fill="white"/>
<path d="M14.5773 6.26231C14.5773 6.72715 14.2 7.10176 13.7379 7.10176C13.273 7.10176 12.8984 6.72442 12.8984 6.26231C12.8984 5.79746 13.2758 5.42285 13.7379 5.42285C14.2 5.42285 14.5773 5.8002 14.5773 6.26231Z" fill="white"/>
</g>
<defs>
<clipPath id="clip0_701_12069">
<rect width="14" height="14" fill="white" transform="translate(3 3)"/>
</clipPath>
</defs>
</svg>
