<svg width="20" height="20" viewBox="0 0 20 20" fill="none" xmlns="http://www.w3.org/2000/svg">
<g clip-path="url(#clip0_701_12071)">
<path d="M15.9637 3H4.03359C3.46211 3 3 3.45117 3 4.00898V15.9883C3 16.5461 3.46211 17 4.03359 17H15.9637C16.5352 17 17 16.5461 17 15.991V4.00898C17 3.45117 16.5352 3 15.9637 3ZM7.15352 14.9301H5.07539V8.24727H7.15352V14.9301ZM6.11445 7.33672C5.44727 7.33672 4.90859 6.79805 4.90859 6.13359C4.90859 5.46914 5.44727 4.93047 6.11445 4.93047C6.77891 4.93047 7.31758 5.46914 7.31758 6.13359C7.31758 6.79531 6.77891 7.33672 6.11445 7.33672ZM14.9301 14.9301H12.8547V11.6816C12.8547 10.9078 12.841 9.90977 11.7746 9.90977C10.6945 9.90977 10.5305 10.7547 10.5305 11.627V14.9301H8.45781V8.24727H10.4484V9.16055H10.4758C10.752 8.63555 11.4301 8.08047 12.4391 8.08047C14.5418 8.08047 14.9301 9.46406 14.9301 11.2633V14.9301V14.9301Z" fill="white"/>
</g>
<defs>
<clipPath id="clip0_701_12071">
<rect width="14" height="14" fill="white" transform="translate(3 3)"/>
</clipPath>
</defs>
</svg>
