<svg width="20" height="20" viewBox="0 0 20 20" fill="none" xmlns="http://www.w3.org/2000/svg">
<g clip-path="url(#clip0_701_12072)">
<path d="M7.40426 15.6874C12.686 15.6874 15.5757 11.3105 15.5757 7.51602C15.5757 7.39298 15.5729 7.2672 15.5675 7.14415C16.1296 6.73762 16.6147 6.23409 17 5.6572C16.4765 5.89012 15.9206 6.04225 15.3514 6.10837C15.9507 5.74914 16.3995 5.1848 16.6145 4.51997C16.0507 4.8541 15.4341 5.0898 14.7912 5.21696C14.358 4.75668 13.7852 4.45192 13.1615 4.3498C12.5377 4.24768 11.8977 4.35389 11.3403 4.652C10.783 4.95011 10.3394 5.42352 10.0781 5.99904C9.81677 6.57456 9.75233 7.22013 9.89473 7.83595C8.75312 7.77866 7.6363 7.4821 6.61666 6.9655C5.59702 6.44889 4.69732 5.72378 3.9759 4.83716C3.60923 5.46933 3.49703 6.2174 3.6621 6.92933C3.82717 7.64125 4.25712 8.26362 4.86457 8.66993C4.40853 8.65545 3.96249 8.53267 3.56328 8.31173V8.34727C3.56287 9.01069 3.79222 9.65378 4.21235 10.1672C4.63247 10.6807 5.21744 11.0328 5.86781 11.1637C5.44537 11.2793 5.00199 11.2961 4.57199 11.2129C4.75552 11.7834 5.11258 12.2825 5.59337 12.6403C6.07415 12.9981 6.65465 13.197 7.25387 13.209C6.23658 14.0081 4.97993 14.4415 3.68633 14.4395C3.45692 14.4391 3.22773 14.425 3 14.3974C4.31417 15.2405 5.84289 15.6882 7.40426 15.6874Z" fill="white"/>
</g>
<defs>
<clipPath id="clip0_701_12072">
<rect width="14" height="14" fill="white" transform="translate(3 3)"/>
</clipPath>
</defs>
</svg>
